Patient4_TMGait_0pt4_02_right_37_EMG.mot
version=1
nRows=20
nColumns=33
inDegrees=no
endheader
time	1LAddLong	2LGlutMax	3LGlutMed	4LIliopsoas	5LSemiMemb	6LBicFemLong	7LRecFem	8LVastMed	9LVastLat	10LGasMed	11LTibAnt	12lTibPost	13LPeroneusLong	14LSol	15LExtDigLong	16LFlexDigLong	17RAddLong	18RGlutMax	19RGlutMed	20RIliopsoas	21RSemiMemb	22RBicFemLong	23RRecFem	24RVastMed	25RVastLat	26RGasMed	27RTibAnt	28RTibPost	29RPeroneusLong	30RSol	31RExtDigLong	32RFlexDigLong
49.755	0.008545	-0.001068	-0.16632	-0.021515	0.13138	0.20172	0.013275	-0.028076	-0.020752	0.046692	0.005341	0.026703	-0.033417	-0.28534	0.003967	-0.018158	0.002899	-0.027008	-0.11887	0.038757	0.21866	-0.03952	-0.26199	0.063477	-0.019989	0.028534	-0.033875	-0.009308	0.22751	0.1236	-0.002289	-0.032654
49.756	0.006714	-0.039368	-0.12955	0.023193	0.073547	0.17212	0.056305	-0.02243	-0.14374	0.11139	0.005188	0.038452	-0.025635	-0.22034	0.014038	-0.022888	0.00824	-0.01297	-0.042877	-0.029449	0.16968	-0.20264	-0.24796	-0.010223	-0.033417	0.039978	-0.007324	-0.007019	0.4332	-0.12344	-0.003662	-0.033875
49.757	-0.007019	-0.159	0.001373	0.036926	-0.001831	0.06073	0.073853	-0.014038	-0.20889	0.12512	0.002441	0.042572	-0.030518	-0.03479	0.024109	-0.016632	0.015259	-0.049286	0.077667	-0.13336	0.11734	-0.2066	-0.24429	-0.017395	-0.022583	0.073242	0.016022	-0.00946	0.8403	-0.23773	-0.001373	-0.034943
49.758	-0.013275	-0.14908	0.080109	-0.000916	-0.066833	-0.22659	0.00946	-0.007477	-0.22797	0.13153	0.004272	0.051422	-0.030518	0.14343	0.033264	-0.004425	0.013428	-0.075684	0.081024	-0.14206	0.090179	-0.12161	-0.22553	-0.043793	-0.035706	0.058594	0.033264	-0.008087	0.79102	-0.25894	-0.000305	-0.036926
49.759	-0.004425	-0.086517	0.15869	-0.029144	-0.15213	-0.33447	-0.014038	0.005493	-0.19806	0.1413	0.004272	0.062561	-0.007935	0.18524	0.036774	0.006714	0.013275	-0.077057	0.065613	-0.078125	0.061493	-0.103	-0.27679	-0.030823	-0.043488	0.04776	0.083466	-0.018005	-0.16159	-0.11887	0.003815	-0.04364
49.76	0.000916	-0.028229	0.13153	-0.036011	-0.091553	-0.49118	-0.007172	0.005951	-0.1445	0.027771	-0.007019	0.065308	-0.000153	0.088501	0.005646	0.019379	0.016937	-0.077667	0.039978	-0.01709	0.04776	-0.13367	-0.2771	-0.002899	-0.018768	0.047455	0.076294	-0.010681	0.35919	-0.11719	0.007629	-0.030365
49.761	0.020599	-0.024872	0.036774	0.014954	0.077362	-0.27863	-0.06134	0.001831	-0.20309	-0.070953	-0.00351	0.072327	-0.003662	0.034637	-0.018311	0.016937	0.004883	-0.028687	-0.013275	0.005493	0.047455	-0.12497	-0.25375	-0.036774	-0.027161	0.014191	0.079651	-0.011292	-0.64957	-0.031128	0.001373	-0.036621
49.762	0.007019	0.001373	0.014038	0.029144	0.010834	-0.099945	-0.010071	0.01297	-0.17395	-0.15793	-0.004578	0.072632	-0.011444	0.10742	-0.01236	0.0177	-0.003357	-0.068054	-0.028839	0.010834	0.084839	-0.11292	-0.28351	-0.040131	-0.019073	0.005188	0.15274	-0.016174	-0.85846	0.08316	0.002441	-0.030518
49.763	0.004272	-0.001373	-0.014954	0.013123	0.036774	-0.074005	-0.13229	0.012665	-0.12009	-0.12543	0.000763	0.08316	-0.001984	0.17136	-0.003662	0.024872	-0.005188	-0.084991	0.043182	-0.049591	0.09613	-0.12177	-0.27496	-0.025482	-0.007019	0.000763	0.037842	-0.007935	-1.1676	-0.080414	-0.000153	-0.024109
49.764	-0.011139	0.04715	-0.014496	0.00946	0.054474	-0.056763	-0.10941	0.020447	-0.036621	-0.12146	-0.000458	0.087433	0.022583	0.15472	-0.005493	0.020447	0.011139	-0.063629	0.053864	-0.039368	0.099335	-0.15243	-0.2562	-0.03418	0.006866	0.02243	-0.029449	-0.005951	-1.5823	-0.10757	-0.002441	-0.020447
49.765	-0.024567	0.036316	-0.020752	0.005798	0.006714	0.016327	-0.073395	0.028839	0.059662	-0.0914	0.002289	0.079956	0.032196	0.11887	-0.002136	0.020599	0.019073	0.001373	-0.006409	-0.021973	0.097198	-0.22736	-0.29114	-0.051575	0.005493	0.031891	-0.062256	-0.008392	-0.47943	-0.070496	-0.00351	-0.015259
49.766	-0.02121	0.061493	-0.037384	0.005646	-0.057526	-0.039063	-0.1236	0.020142	0.25192	-0.033417	0.001373	0.076141	0.03006	0.10895	-0.000305	0.019989	0.020905	-0.075073	-0.038452	-0.00824	0.12329	-0.28427	-0.31158	-0.084076	-0.019379	0.036469	-0.14877	-0.010986	0.79514	0.00473	-0.001068	-0.014038
49.767	-0.017395	0.076904	-0.031433	0.00351	-0.027771	-0.14084	-0.048218	0.014648	0.33447	-0.014648	0.010223	0.078888	0.018311	0.079346	-0.001678	0.032501	0.029907	-0.11826	0.033722	-0.034943	0.099335	-0.25131	-0.28122	-0.072479	0.008392	0.031738	-0.15717	-0.012054	0.58731	-0.069733	-0.003662	-0.019836
49.768	-0.016327	0.099182	-0.039368	-0.002594	0.05127	-0.19089	0.044861	0.016937	0.26825	0.005341	0.000763	0.06958	0.022583	0.050659	0.005646	0.049744	0.025482	-0.09903	0.033569	-0.006104	0.05249	-0.23193	-0.26764	-0.072021	0.011444	0.014954	-0.11871	-0.007629	0.6778	-0.19547	-0.002136	-0.022888
49.769	0.003815	0.10208	-0.037079	0.007782	0.053711	-0.15243	-0.041962	-0.00061	0.097046	-0.007019	0.005341	0.040741	0.015106	0.096283	-0.027771	0.017242	0.041046	-0.10834	0.057678	0.027771	0.026703	-0.10529	-0.28732	-0.048523	0.011444	-0.007782	-0.075989	-0.007782	0.45639	-0.40588	-0.003052	-0.016937
49.77	0.012054	0.12253	-0.034637	0.01358	0.033569	-0.011597	-0.072174	-0.011444	-0.26657	-0.009918	0.021667	0.037842	0.010376	0.1532	0.006256	0.004578	0.053558	-0.050507	0.026093	0.066681	0.036163	0.024109	-0.27268	-0.035248	0.018005	0.00412	-0.023041	-0.000153	0.75043	-0.345	-0.000916	-0.020905
49.771	0.016937	0.12802	-0.061493	0.014343	0.001526	0.1796	-0.024567	-0.017242	-0.54749	-0.026703	0.035706	0.018921	0.018005	0.15152	0.026398	-0.001831	0.033417	-0.089569	0.000458	-0.008392	0.048218	-0.001831	-0.25559	-0.03479	0.01297	0.001526	0.006561	0.010681	0.21622	0.32303	-0.000458	-0.020599
49.772	0.014496	0.12238	-0.076904	0.003052	0.040131	0.22537	0.001221	0.000305	-0.49606	-0.036774	0.043793	0.010376	0.031586	0.19012	0.014038	-0.006104	0.006409	-0.16571	-0.02182	-0.11719	0.017242	-0.029755	-0.25391	-0.054474	0.010986	-0.002289	0.002289	0.004883	-0.23956	0.31189	-0.005798	-0.02243
49.773	0.00824	0.15213	-0.075073	0.007019	0.040588	0.15274	-0.080414	0.01358	-0.19974	-0.042572	0.037537	0	0.038605	0.19791	0.003815	-0.010376	0.035553	-0.13428	-0.016479	-0.13153	0.034637	-0.1091	-0.28	-0.046844	0.035248	0.010681	0.016174	-0.006714	-0.25406	0.037537	-0.005798	-0.019836
49.774	0.001984	0.17761	-0.060272	0.02182	0.04364	0.19302	-0.14526	0.014954	0.022736	-0.050507	0.00412	0.003815	0.038147	0.22125	-0.067291	-0.00946	0.036926	-0.1358	0.020447	-0.066681	0.12878	-0.2681	-0.25162	-0.002136	0.048523	0.015259	0.018921	-0.02182	0.13611	0.063782	-0.001068	-0.021667
